<?xml version="1.0" encoding="UTF-8" standalone="no"?>
<!-- Created with Inkscape (http://www.inkscape.org/) -->

<svg
   xmlns:dc="http://purl.org/dc/elements/1.1/"
   xmlns:cc="http://creativecommons.org/ns#"
   xmlns:rdf="http://www.w3.org/1999/02/22-rdf-syntax-ns#"
   xmlns:svg="http://www.w3.org/2000/svg"
   xmlns="http://www.w3.org/2000/svg"
   xmlns:sodipodi="http://sodipodi.sourceforge.net/DTD/sodipodi-0.dtd"
   xmlns:inkscape="http://www.inkscape.org/namespaces/inkscape"
   width="32"
   height="32"
   id="svg2"
   version="1.1"
   inkscape:version="0.48.5 r10040"
   sodipodi:docname="Nuovo documento 1">
  <defs
     id="defs4" />
  <sodipodi:namedview
     id="base"
     pagecolor="#ffffff"
     bordercolor="#666666"
     borderopacity="1.0"
     inkscape:pageopacity="0.0"
     inkscape:pageshadow="2"
     inkscape:zoom="5.6"
     inkscape:cx="-10.864184"
     inkscape:cy="22.383859"
     inkscape:document-units="px"
     inkscape:current-layer="layer1"
     showgrid="true"
     inkscape:showpageshadow="false"
     inkscape:window-width="1366"
     inkscape:window-height="706"
     inkscape:window-x="-8"
     inkscape:window-y="-8"
     inkscape:window-maximized="1">
    <inkscape:grid
       type="xygrid"
       id="grid2985"
       empspacing="5"
       visible="true"
       enabled="true"
       snapvisiblegridlinesonly="true" />
  </sodipodi:namedview>
  <metadata
     id="metadata7">
    <rdf:RDF>
      <cc:Work
         rdf:about="">
        <dc:format>image/svg+xml</dc:format>
        <dc:type
           rdf:resource="http://purl.org/dc/dcmitype/StillImage" />
        <dc:title></dc:title>
      </cc:Work>
    </rdf:RDF>
  </metadata>
  <g
     inkscape:label="Livello 1"
     inkscape:groupmode="layer"
     id="layer1"
     transform="translate(0,-1020.3622)">
    <path
       style="font-size:34px;font-style:normal;font-variant:normal;font-weight:normal;font-stretch:normal;line-height:125%;letter-spacing:0px;word-spacing:0px;fill:#ffc300;fill-opacity:1;stroke:#000000;font-family:Times New Roman;-inkscape-font-specification:Times New Roman;stroke-opacity:1;stroke-linejoin:round;stroke-linecap:butt"
       d="M 4.40625 5.21875 L 4.40625 5.84375 C 5.0703114 5.9101783 5.508462 6.1969619 5.71875 6.65625 C 5.9290345 7.1155808 6.031248 8.0429887 6.03125 9.4375 C 6.031248 11.617855 6.2483701 13.260757 6.71875 14.40625 C 7.1891244 15.55177 8.0891886 16.479178 9.40625 17.1875 C 10.723301 17.895843 12.589184 18.288421 14.96875 18.34375 L 14.96875 23.59375 C 14.968739 24.91081 14.879221 25.763349 14.71875 26.15625 C 14.558258 26.549155 14.231435 26.857749 13.75 27.0625 C 13.268545 27.267253 12.547518 27.363933 11.5625 27.375 L 11.5625 28 L 21.5625 28 L 21.5625 27.375 C 20.555322 27.375001 19.79393 27.263673 19.3125 27.03125 C 18.83104 26.798829 18.5244 26.506837 18.375 26.125 C 18.225572 25.743166 18.156236 24.888675 18.15625 23.59375 L 18.15625 18.34375 C 20.513655 18.288421 22.368471 17.906911 23.71875 17.1875 C 25.068989 16.468111 25.957986 15.531588 26.40625 14.375 C 26.854469 13.218439 27.062477 11.562516 27.0625 9.4375 C 27.062477 7.9876502 27.179339 7.0420131 27.40625 6.59375 C 27.633114 6.1455297 28.056617 5.8880429 28.6875 5.84375 L 28.6875 5.21875 C 26.927711 5.2187728 25.675434 5.6696187 24.90625 6.59375 C 24.137024 7.5179241 23.702454 8.9511909 23.625 10.84375 C 23.547506 12.548193 23.385072 13.769545 23.125 14.5 C 22.86489 15.230482 22.342755 15.834648 21.5625 16.34375 C 20.78221 16.852876 19.661443 17.093761 18.15625 17.09375 L 18.15625 9.875 C 18.156236 8.5800975 18.225572 7.7311401 18.375 7.34375 C 18.5244 6.9564012 18.836574 6.6533417 19.3125 6.4375 C 19.788396 6.2217015 20.544254 6.1048396 21.5625 6.09375 L 21.5625 5.5 L 11.5625 5.5 L 11.5625 6.09375 C 12.580721 6.1048396 13.305329 6.2161676 13.78125 6.4375 C 14.257151 6.6588755 14.569325 6.9619351 14.71875 7.34375 C 14.868153 7.7256062 14.968739 8.5800975 14.96875 9.875 L 14.96875 17.09375 C 13.4746 17.093761 12.328117 16.85841 11.53125 16.34375 C 10.734368 15.829114 10.186517 15.199232 9.9375 14.46875 C 9.6884709 13.738296 9.5462184 12.537125 9.46875 10.84375 C 9.4134061 9.4713727 9.1650339 8.3411655 8.75 7.5 C 8.3349566 6.6588755 7.7799441 6.0820532 7.09375 5.75 C 6.4075497 5.4179913 5.524087 5.2409082 4.40625 5.21875 z "
       transform="translate(0,1020.3622)"
       id="text2987" />
  </g>
</svg>
